<svg viewBox="0 0 200 200" xmlns="http://www.w3.org/2000/svg">
  <path fill="#a855f7" d="M42.4,-68.2C55.1,-57.9,65.5,-46.3,74.4,-32.3C83.4,-18.4,90.9,-2.1,89.4,13.3C87.9,28.7,77.4,43.4,64.9,54.3C52.4,65.2,37.9,72.5,23.7,73.3C9.4,74.2,-4.5,68.6,-17.1,62.9C-29.7,57.1,-40.9,51.1,-53.1,42.8C-65.3,34.5,-78.5,23.8,-80.9,11.3C-83.3,-1.3,-74.9,-15.8,-66.4,-28.6C-57.9,-41.3,-49.3,-52.3,-38.2,-63.3C-27.1,-74.4,-13.6,-85.4,0.7,-86.5C14.9,-87.5,29.8,-78.5,42.4,-68.2Z" transform="translate(100 100)" />
</svg>